<svg width="400" height="400" version="1.1" xmlns="http://www.w3.org/2000/svg" desc="Created with imagetracer.js version 1.2.5"><path d="M 315 10 Q 318 8.8 317 12.5 L 318 16 L 315 14.5 L 315 10 Z "></path><path d="M 247.5 18 L 252 22.5 L 259 38.5 Q 259 48 262 54.5 L 262 67.5 L 263 68.5 L 263 79.5 L 264 80.5 L 265 96.5 L 270 115.5 L 282 142.5 L 296 162 Q 298.7 160.9 298 163.5 Q 317 183 341.5 197 L 342 195.5 L 333 187.5 L 331.5 185 L 328.5 183 L 317 169.5 L 307 149.5 Q 307.3 142.7 304 139.5 L 304 132.5 L 302 123.5 L 302 98.5 L 303 97.5 L 304 67.5 L 305 64.5 L 304 63.5 L 303 51.5 L 298 39 L 303 42.5 L 306 52.5 L 306 73.5 L 307 78.5 L 306 79.5 L 306 90.5 L 305 91.5 Q 306.7 99.7 304 103.5 L 305 105.5 Q 302.3 107.3 304 113.5 L 305 114.5 L 305 127.5 L 307 134.5 L 307 140.5 L 313 156.5 Q 323.5 176.5 340.5 190 L 368.5 211 L 387.5 221 L 400 229.5 L 399.5 232 L 395.5 230 L 392.5 231 L 378.5 221 L 365.5 216 L 326.5 195 Q 309.3 184.3 296 169.5 Q 283.7 156.8 275 140.5 L 266 116.5 L 263 99.5 L 261 95.5 L 261 85.5 L 258 72.5 L 258 64.5 L 256 56.5 L 255 42.5 L 247.5 18 Z M 354 73 L 354 75 L 361 81 L 377 91 L 377 89 Q 367 78 354 73 Z "></path><path d="M 367 35 L 376 40 Q 374.9 42.7 377.5 42 L 384 47.5 L 383.5 49 L 367 36.5 L 367 35 Z "></path><path d="M 346 36 L 350 38.5 L 356.5 46 L 360 48.5 Q 359.3 50.8 361.5 50 L 400 83.5 L 399.5 89 L 391.5 80 L 388.5 78 L 374.5 64 Q 361 56 351 44.5 L 346 36 Z "></path><path d="M 337.5 38 Q 345.5 50.5 356.5 60 L 386.5 82 L 400 95.5 L 399.5 100 L 389.5 90 L 388 90 Q 389.1 87.3 386.5 88 L 348 56 L 339 44.5 L 337.5 38 Z "></path><path d="M 327.5 44 L 333 48.5 L 337.5 55 L 343.5 58 L 358 70.5 Q 357.3 72.8 359.5 72 L 381.5 88 L 398 102.5 L 398 104 L 400 104.5 L 400 114.5 L 399 114.5 L 387.5 102 L 355.5 80 L 344 68.5 L 336 56 Q 331.9 54.3 333 58.5 L 335 65.5 L 335 72 L 331 69.5 L 326 45.5 L 327.5 44 Z "></path><path d="M 312.5 50 L 315 59.5 L 315 69.5 L 314 70.5 L 314 80.5 L 312 88.5 L 311.5 129 L 310 121.5 L 310 82.5 L 311 81.5 L 311 58.5 L 312.5 50 Z "></path><path d="M 397.5 59 L 400 60 L 399.5 62 L 397 61 L 397.5 59 Z "></path><path d="M 331.5 104 L 332 110.5 L 331 111.5 L 331 135.5 L 336 154.5 L 333 152.5 L 333 149.5 L 331 147.5 L 327 134.5 L 327 114.5 L 331.5 104 Z "></path><path d="M 376.5 109 L 387.5 111 L 398 117 L 400 120.5 L 400 135.5 L 395.5 132 Q 388.6 126.4 374.5 128 L 362 134 L 355 147.5 L 355 157.5 Q 356.9 166.1 362.5 171 L 376.5 177 L 387.5 177 Q 388.7 174.8 393.5 176 L 399.5 170 L 400 173.5 L 391.5 179 L 372.5 180 Q 357.7 176.3 349 166.5 L 342 152.5 L 342 138.5 Q 345.8 122.3 357.5 114 L 364.5 111 L 375.5 110 L 376.5 109 Z "></path><path d="M 166.5 119 L 188.5 120 L 199.5 123 L 209 129.5 L 208.5 131 L 189.5 131 L 188.5 132 L 179.5 132 Q 176.6 134.6 170.5 134 L 150.5 141 L 115.5 160 L 87.5 173 L 59.5 181 L 40.5 183 L 38 185.5 L 36 192.5 L 36 198.5 L 31 227.5 L 32 229.5 L 31 230.5 L 31 253.5 L 30 255.5 L 31 256.5 L 32 284.5 L 36 298.5 L 36 302.5 Q 43.6 322.4 58.5 335 L 71 342.5 L 71 344.5 L 61.5 355 Q 55.7 360.2 42.5 358 Q 34.6 355.9 31 349.5 L 19 325.5 L 14 298.5 L 14 282.5 L 13 277.5 L 14 276.5 L 14 250.5 L 15 249.5 L 17 217.5 L 18 216.5 L 18 207.5 L 19 206.5 L 19 197.5 L 21 189.5 L 21 182 L 6.5 179 L 1.5 179 L 0 177.5 L 0 167.5 L 3.5 167 L 4.5 168 L 41.5 168 L 64.5 163 L 86.5 154 L 136.5 128 L 152.5 122 L 166.5 119 Z "></path><path d="M 321 120 Q 324 118.8 323 122.5 L 321.5 127 L 321 120 Z "></path><path d="M 312.5 132 Q 315.7 136.3 315 143 L 312 141.5 L 312.5 132 Z "></path><path d="M 374.5 136 Q 391.3 135.2 398 144.5 Q 401.2 147.8 400 155.5 L 395.5 162 Q 386.8 160.3 384 164.5 L 384 166.5 L 379.5 171 Q 369.1 172.4 366 166.5 Q 361.6 161.4 363 150.5 L 368 139 L 374.5 136 Z "></path><path d="M 315.5 145 L 321 157.5 L 333 176 L 336 177.5 L 337 179.5 L 335.5 180 Q 325.8 172.7 320 161.5 L 320 158.5 L 315 151.5 L 315.5 145 Z "></path><path d="M 339.5 160 L 346.5 168 L 349 169.5 L 357.5 179 L 395 211.5 L 394.5 213 L 386 208 Q 387.1 205.3 384.5 206 L 341 172 L 337.5 166 Q 335.3 166.8 336 164.5 L 335 162.5 L 336.5 163 Q 338.8 163.8 338 161.5 L 339.5 160 Z M 339 163 L 342 168 L 343 165 L 339 163 Z "></path><path d="M 144.5 177 L 151.5 177 L 160 183.5 Q 163.9 187.6 163 196.5 L 159 205 L 154.5 208 L 146.5 210 Q 137.3 208.3 133 201.5 Q 129.5 197.5 131 188.5 L 136.5 181 L 144.5 177 Z "></path><path d="M 338.5 181 L 339.5 183 L 338.5 181 Z "></path><path d="M 64.5 187 Q 78.8 186.8 84 195.5 L 77 226.5 L 78 229 L 82.5 228 L 93.5 221 L 102.5 220 L 107 222.5 L 118 249.5 L 121 263.5 L 124 268.5 L 127 281.5 L 129 283.5 L 132 294.5 L 143 320.5 Q 153.1 339.4 168.5 353 L 171 354.5 L 173.5 358 L 178 360 Q 176.9 362.7 179.5 362 L 203.5 377 L 231.5 386 L 236.5 386 L 249.5 389 L 256.5 389 L 263.5 391 L 301.5 391 L 302.5 390 L 309.5 390 L 310.5 389 L 335.5 386 L 343.5 383 L 347.5 383 L 350.5 381 L 354.5 381 L 384.5 370 L 400 361 L 400 369.5 L 398.5 371 L 384.5 380 L 367.5 388 L 350.5 394 L 326.5 400 L 228.5 400 L 209.5 394 L 187.5 384 Q 171.8 375.2 160 362.5 L 144 341.5 L 127 309.5 L 115 281.5 L 115 278.5 L 104 247.5 L 97.5 235 L 92.5 234 L 87.5 235 L 75 242.5 L 73 247.5 L 72 285.5 L 70.5 290 L 67 285.5 L 67 279.5 L 64 268.5 L 64 261.5 L 62 257.5 L 60 222.5 L 59 221.5 L 59 206.5 L 54 192.5 L 55 190 L 64.5 187 Z "></path><path d="M 365.5 200 L 368 201.5 L 366.5 202 L 365.5 200 Z "></path><path d="M 369.5 203 L 372 204.5 L 370.5 204 L 369.5 203 Z "></path><path d="M 373.5 205 L 379.5 207 L 382.5 210 L 394.5 216 L 397.5 214 L 400 215 L 399.5 222 L 375.5 208 L 373.5 205 Z "></path><path d="M 263.5 212 L 270.5 213 L 280 219.5 L 281 226.5 L 279 230.5 L 278 241.5 L 275 251.5 L 274 266.5 Q 276.3 267.8 275 272.5 L 280.5 280 L 285.5 281 L 299 272.5 L 307 262.5 L 308 256.5 L 307 255.5 L 306 235.5 L 301 216.5 Q 306 211 317.5 212 Q 326.6 213.9 331 220.5 L 331 226.5 L 329 230.5 L 326 243.5 L 326 248.5 L 321 265.5 L 319 289 Q 315.2 289.8 314 286.5 L 309 271 L 305 273.5 Q 302 281 295.5 285 L 284.5 291 L 274.5 291 Q 264.8 288.3 260 280.5 L 255 264.5 L 256 263.5 L 256 235.5 L 251 216.5 L 254.5 214 L 263.5 212 Z "></path><path d="M 145.5 214 L 155.5 216 L 163 222.5 L 164 225.5 L 162 229.5 L 153 269.5 L 152 292 Q 147.3 292.8 146 288.5 L 142 277.5 L 137 234.5 L 134 223.5 L 132 221.5 L 132 218.5 L 135.5 216 L 145.5 214 Z "></path><path d="M 183.5 214 L 194.5 215 L 205.5 223 L 214.5 218 L 229.5 218 L 240 224 L 244 232.5 L 244 240.5 L 235.5 251 L 225 255 L 225 250.5 L 228 242.5 L 228 237.5 L 220.5 229 L 210.5 227 L 204.5 229 L 202 231.5 L 192 278.5 L 192 291 L 188 289.5 L 184 281.5 L 182 273.5 L 181 260.5 L 179 252.5 L 178 233.5 L 173 218.5 L 175.5 216 L 183.5 214 Z "></path><path d="M 397.5 234 L 400 235 Q 401 238 398 237 L 397.5 234 Z "></path></svg>